<?xml version="1.0" standalone="no"?>
<!DOCTYPE svg PUBLIC "-//W3C//DTD SVG 20010904//EN"
 "http://www.w3.org/TR/2001/REC-SVG-20010904/DTD/svg10.dtd">
<svg version="1.0" xmlns="http://www.w3.org/2000/svg"
 width="512.000000pt" height="512.000000pt" viewBox="0 0 512.000000 512.000000"
 preserveAspectRatio="xMidYMid meet">

<g transform="translate(0.000000,512.000000) scale(0.100000,-0.100000)"
fill="#000000" stroke="none">
<path d="M871 4538 c-13 -7 -33 -25 -44 -40 l-20 -27 36 -340 c19 -186 40
-349 46 -360 24 -45 50 -51 392 -91 184 -22 346 -38 360 -34 43 8 74 49 74 96
0 32 -6 45 -31 68 -34 30 -22 27 -379 68 l-150 17 70 57 c151 121 343 225 535
289 778 260 1617 -24 2072 -700 309 -460 388 -1043 212 -1571 -200 -602 -705
-1055 -1324 -1188 -547 -118 -1137 30 -1545 386 -42 37 -92 80 -110 96 -79 67
-186 7 -167 -93 14 -70 321 -307 542 -417 711 -356 1570 -258 2175 248 787
658 953 1791 386 2645 -567 852 -1692 1137 -2599 657 -114 -60 -195 -112 -288
-185 l-61 -49 -6 38 c-3 20 -13 113 -23 206 -16 156 -19 172 -43 198 -30 33
-76 44 -110 26z"/>
<path d="M2662 3614 c-12 -8 -26 -24 -32 -34 -6 -11 -57 -227 -115 -481 -58
-254 -107 -464 -110 -467 -3 -3 -262 -51 -577 -107 -315 -56 -581 -105 -591
-110 -21 -9 -47 -56 -47 -85 0 -36 28 -77 61 -90 28 -12 91 -3 648 95 339 59
628 114 642 121 14 7 31 26 38 41 22 55 238 1032 234 1057 -12 61 -100 96
-151 60z"/>
</g>
</svg>
